<svg width="29" height="28" viewBox="0 0 29 28" fill="none" xmlns="http://www.w3.org/2000/svg">
<path d="M14.9709 6.08435L14.5 7.40229L14.0291 6.08435C12.3978 1.51821 8.99679 0.0592804 6.06302 0.611256C3.09436 1.16979 0.5 3.79538 0.5 7.67309C0.5 9.78691 1.35832 12.0872 2.6973 14.3781C4.03238 16.6623 5.81975 18.894 7.61887 20.8601C9.41637 22.8244 11.2155 24.5126 12.5661 25.7102C13.2411 26.3087 13.8031 26.784 14.1958 27.1091C14.3127 27.2059 14.4146 27.2893 14.5 27.3588C14.5854 27.2893 14.6873 27.2059 14.8042 27.1091C15.1969 26.784 15.7589 26.3087 16.4339 25.7102C17.7845 24.5126 19.5836 22.8244 21.3811 20.8601C23.1802 18.894 24.9676 16.6623 26.3027 14.3781C27.6417 12.0872 28.5 9.78691 28.5 7.67309C28.5 3.79538 25.9056 1.16979 22.937 0.611256C20.0032 0.0592804 16.6022 1.51821 14.9709 6.08435Z" stroke="#FEFEFE"/>
</svg>
