<svg width="19" height="18" viewBox="0 0 19 18" fill="none" xmlns="http://www.w3.org/2000/svg">
<path d="M9.96983 3.97429L9.5 5.26464L9.03018 3.97429C7.98996 1.1174 5.84095 0.229364 4.00252 0.568754C2.13096 0.914261 0.5 2.53531 0.5 4.9327C0.5 6.24384 1.04401 7.68898 1.91394 9.14938C2.77973 10.6028 3.94165 12.0272 5.11566 13.286C6.28799 14.5431 7.46204 15.6241 8.34382 16.3913C8.78437 16.7746 9.15109 17.0788 9.40705 17.2867C9.43989 17.3134 9.4709 17.3385 9.5 17.362C9.52911 17.3385 9.56011 17.3134 9.59295 17.2867C9.84891 17.0788 10.2156 16.7746 10.6562 16.3913C11.538 15.6241 12.712 14.5431 13.8843 13.286C15.0584 12.0272 16.2203 10.6028 17.0861 9.14938C17.956 7.68898 18.5 6.24384 18.5 4.9327C18.5 2.53531 16.869 0.914261 14.9975 0.568754C13.159 0.229364 11.01 1.1174 9.96983 3.97429Z" stroke="#FEFEFE"/>
</svg>
