<svg width="19" height="18" viewBox="0 0 19 18" fill="none" xmlns="http://www.w3.org/2000/svg">
<path d="M8.79383 11.9617C8.64962 12.0923 8.56983 12.2671 8.57163 12.4487C8.57344 12.6302 8.6567 12.8038 8.80348 12.9322C8.95026 13.0605 9.14882 13.1334 9.35639 13.1349C9.56396 13.1365 9.76394 13.0667 9.91325 12.9406L14.136 9.234C14.1729 9.20185 14.2021 9.16365 14.2221 9.12159C14.242 9.07954 14.2523 9.03445 14.2523 8.98892C14.2523 8.94339 14.242 8.89831 14.2221 8.85625C14.2021 8.8142 14.1729 8.776 14.136 8.74385L9.91325 5.03862C9.76394 4.91251 9.56396 4.84273 9.35639 4.8443C9.14882 4.84588 8.95026 4.91869 8.80348 5.04705C8.6567 5.17541 8.57344 5.34905 8.57163 5.53057C8.56983 5.71209 8.64962 5.88697 8.79383 6.01754L11.4 8.30769H0.791667C0.581704 8.30769 0.38034 8.38063 0.231874 8.51046C0.0834075 8.6403 0 8.81639 0 9C0 9.18361 0.0834075 9.3597 0.231874 9.48954C0.38034 9.61937 0.581704 9.69231 0.791667 9.69231H11.4L8.79383 11.9617ZM17.4167 0H7.125C6.91504 0 6.71367 0.0729393 6.56521 0.202772C6.41674 0.332605 6.33333 0.508696 6.33333 0.692308C6.33333 0.875919 6.41674 1.05201 6.56521 1.18184C6.71367 1.31168 6.91504 1.38462 7.125 1.38462H16.625C16.835 1.38462 17.0363 1.45755 17.1848 1.58739C17.3333 1.71722 17.4167 1.89331 17.4167 2.07692V15.9231C17.4167 16.1067 17.3333 16.2828 17.1848 16.4126C17.0363 16.5424 16.835 16.6154 16.625 16.6154H6.72917C6.5192 16.6154 6.31784 16.6883 6.16937 16.8182C6.02091 16.948 5.9375 17.1241 5.9375 17.3077C5.9375 17.4913 6.02091 17.6674 6.16937 17.7972C6.31784 17.9271 6.5192 18 6.72917 18H17.4167C17.8366 18 18.2393 17.8541 18.5363 17.5945C18.8332 17.3348 19 16.9826 19 16.6154V1.38462C19 1.01739 18.8332 0.66521 18.5363 0.405544C18.2393 0.145879 17.8366 0 17.4167 0Z" fill="white"/>
</svg>
