<svg width="19" height="19" viewBox="0 0 19 19" fill="none" xmlns="http://www.w3.org/2000/svg">
<path d="M9.5 0C6.98124 0.00260298 4.56639 1.00433 2.78536 2.78535C1.00433 4.56638 0.00260298 6.98123 0 9.49998C0 12.0383 0.987506 14.4235 2.78131 16.2173C3.6615 17.1024 4.70856 17.8041 5.86184 18.2818C7.01512 18.7594 8.25172 19.0036 9.5 19C12.0188 18.9974 14.4336 17.9956 16.2146 16.2146C17.9957 14.4336 18.9974 12.0187 19 9.49998C18.9974 6.98123 17.9957 4.56638 16.2146 2.78535C14.4336 1.00433 12.0188 0.00260298 9.5 0ZM3.75758 16.1554C4.41417 15.3012 5.25519 14.6063 6.21789 14.1225C7.18059 13.6387 8.24011 13.3786 9.31739 13.3615C9.3511 13.3629 9.38341 13.3713 9.41712 13.3713H9.44943C9.48033 13.3713 9.50843 13.3629 9.53933 13.3615C10.6315 13.3801 11.7049 13.6488 12.677 14.147C13.6491 14.6453 14.4941 15.3597 15.1469 16.2355C13.5674 17.5685 11.5668 18.2991 9.5 18.2976C7.38981 18.3014 5.34973 17.5404 3.75758 16.1554ZM9.42134 12.6521C9.38622 12.6521 9.35251 12.6577 9.31739 12.6591C8.49748 12.6314 7.72073 12.2849 7.15229 11.6934C6.58385 11.1018 6.26854 10.3119 6.2734 9.49155C6.27487 9.07629 6.3583 8.6654 6.51892 8.28245C6.67954 7.8995 6.91417 7.55202 7.20938 7.25995C7.50458 6.96789 7.85454 6.73697 8.23918 6.58045C8.62382 6.42392 9.03558 6.34487 9.45084 6.34784C9.8661 6.3493 10.277 6.43274 10.6599 6.59336C11.0429 6.75397 11.3904 6.98861 11.6824 7.28381C11.9745 7.57901 12.2054 7.92897 12.3619 8.31361C12.5185 8.69825 12.5975 9.11001 12.5946 9.52527C12.5946 11.2278 11.232 12.6114 9.54074 12.6606C9.5014 12.6591 9.46207 12.6521 9.42134 12.6521ZM15.668 15.7635C14.5819 14.3301 13.0369 13.3127 11.291 12.8811C11.8985 12.5482 12.4053 12.058 12.7582 11.4619C13.1111 10.8658 13.2972 10.1857 13.2969 9.49296C13.2953 8.98551 13.1935 8.48337 12.9975 8.0153C12.8016 7.54722 12.5152 7.12239 12.1548 6.76514C11.7944 6.40789 11.3671 6.12523 10.8973 5.93335C10.4276 5.74146 9.92456 5.64412 9.41712 5.64689C8.90968 5.64855 8.40754 5.75027 7.93946 5.94625C7.47138 6.14223 7.04655 6.42861 6.6893 6.78899C6.33205 7.14937 6.04939 7.57668 5.8575 8.04645C5.66562 8.51622 5.56827 9.01923 5.57105 9.52667C5.57363 10.213 5.76033 10.886 6.11168 11.4755C6.46303 12.065 6.96614 12.5495 7.56853 12.8783C5.85213 13.2999 4.32763 14.287 3.24065 15.6807C1.6103 14.0386 0.697942 11.8168 0.703756 9.50279C0.706358 7.17031 1.63409 4.93411 3.2834 3.2848C4.93272 1.63549 7.16892 0.707762 9.5014 0.705159C11.8339 0.707762 14.0701 1.63549 15.7194 3.2848C17.3687 4.93411 18.2965 7.17031 18.2991 9.50279C18.2985 10.6688 18.0655 11.823 17.6137 12.898C17.162 13.973 16.5006 14.9471 15.668 15.7635Z" fill="white"/>
</svg>
