<svg width="32" height="29" viewBox="0 0 32 29" fill="none" xmlns="http://www.w3.org/2000/svg">
<path d="M6.36189 16.4808V25.9768H25.6387L25.6381 16.4808H6.36189ZM4.71857 11.3756C4.61765 11.307 4.50068 11.2706 4.38136 11.2695H0.599017C0.268972 11.2712 0.000575174 11.5357 0 11.8624V26.4213C0.000575174 26.745 0.268972 27.0107 0.599017 27.0113H4.38371C4.66037 27.0107 4.90675 26.8131 4.9661 26.5421C4.97442 26.4987 4.97619 26.4665 4.9774 26.4348L4.97797 26.4002L4.98032 26.385V11.8624C4.9798 11.6706 4.88244 11.4888 4.71857 11.3756ZM1.73059 28.3766V29H3.24863V28.3766H1.73059ZM28.5447 9.90592V3.13641C28.5417 1.40986 27.1164 0.00294421 25.3686 0H6.63201C4.88359 0.00294421 3.45998 1.40986 3.45643 3.1376V9.90597H4.38376C5.47377 9.90654 6.36194 10.7833 6.36194 11.8612V15.1167H25.6381V11.8624C25.6387 11.4999 25.7432 11.1451 25.9385 10.8349C26.303 10.2555 26.9305 9.90654 27.6168 9.90597H28.5447V9.90592ZM28.7513 29H30.2694V28.3766H28.7513V29ZM31.4022 11.27H27.6168C27.5788 11.27 27.5331 11.2782 27.4732 11.2917C27.2974 11.3363 27.1473 11.4624 27.0724 11.6248C27.0689 11.636 27.0653 11.6453 27.0623 11.6571C27.0327 11.7363 27.0202 11.8019 27.0196 11.8647V26.4213C27.0196 26.4541 27.0232 26.4882 27.0327 26.5286C27.0926 26.8131 27.339 27.0107 27.6181 27.0113H31.4028C31.7257 27.0107 31.9988 26.741 32 26.4207V11.8624C31.9994 11.5357 31.7316 11.2712 31.4022 11.27Z" fill="#676767" fill-opacity="0.65"/>
<path d="M4.48032 11.8634V26.3466L4.47861 26.3577L4.47804 26.3919L4.47756 26.4208C4.47716 26.4304 4.47687 26.4345 4.4766 26.4374C4.4765 26.4384 4.47639 26.4395 4.47623 26.4408C4.47134 26.4572 4.46059 26.4743 4.44297 26.4885C4.4234 26.5043 4.40181 26.5111 4.38309 26.5113C4.38296 26.5113 4.38282 26.5113 4.38269 26.5113L0.599878 26.5113C0.538967 26.5112 0.500213 26.4625 0.5 26.4206V11.863C0.500215 11.8184 0.539009 11.7702 0.600898 11.7695H4.37785C4.39725 11.7699 4.41716 11.7757 4.43599 11.7881C4.46891 11.8115 4.48015 11.842 4.48032 11.8634ZM4.38403 9.40597H4.38376H3.95643V3.13818C3.95965 1.69163 5.15431 0.502707 6.63245 0.5H25.3681C26.8462 0.502708 28.0422 1.69229 28.0447 3.13727V9.40597H27.6168H27.6164C26.7576 9.40668 25.9708 9.8445 25.5152 10.5686C25.2711 10.9565 25.1388 11.403 25.1381 11.8616V11.8624V14.6167H6.86194V11.8612C6.86194 10.5014 5.74413 9.40668 4.38403 9.40597ZM27.5306 11.8324L27.5358 11.8185C27.5495 11.7999 27.5707 11.784 27.5923 11.7774C27.6106 11.7734 27.622 11.7712 27.6292 11.77H31.4009C31.4606 11.7705 31.4999 11.8174 31.5 11.8633V26.4193C31.4998 26.4355 31.4926 26.4584 31.4705 26.4803C31.4482 26.5024 31.4226 26.5112 31.4019 26.5113L27.6191 26.5113C27.6189 26.5113 27.6188 26.5113 27.6187 26.5113C27.5783 26.511 27.5337 26.4813 27.522 26.4256L27.5221 26.4255L27.5196 26.415V11.8693C27.5197 11.8687 27.5198 11.8677 27.5202 11.8661C27.5211 11.8617 27.5236 11.8511 27.5306 11.8324ZM25.1387 25.4768H6.86189V16.9808H25.1381L25.1387 25.4768Z" stroke="#676767" stroke-opacity="0.95"/>
</svg>
