<svg width="32" height="29" viewBox="0 0 32 29" fill="none" xmlns="http://www.w3.org/2000/svg">
<path d="M4.48032 11.8634V26.3466L4.47861 26.3577L4.47804 26.3919L4.47756 26.4208C4.47716 26.4304 4.47687 26.4345 4.4766 26.4374C4.4765 26.4384 4.47639 26.4395 4.47623 26.4408C4.47134 26.4572 4.46059 26.4743 4.44297 26.4885C4.4234 26.5043 4.40181 26.5111 4.38309 26.5113C4.38296 26.5113 4.38282 26.5113 4.38269 26.5113L0.599878 26.5113C0.538967 26.5112 0.500213 26.4625 0.5 26.4206V11.863C0.500215 11.8184 0.539009 11.7702 0.600898 11.7695H4.37785C4.39725 11.7699 4.41716 11.7757 4.43599 11.7881C4.46891 11.8115 4.48015 11.842 4.48032 11.8634ZM4.38403 9.40597H4.38376H3.95643V3.13818C3.95965 1.69163 5.15431 0.502707 6.63245 0.5H25.3681C26.8462 0.502708 28.0422 1.69229 28.0447 3.13727V9.40597H27.6168H27.6164C26.7576 9.40668 25.9708 9.8445 25.5152 10.5686C25.2711 10.9565 25.1388 11.403 25.1381 11.8616V11.8624V14.6167H6.86194V11.8612C6.86194 10.5014 5.74413 9.40668 4.38403 9.40597ZM27.5306 11.8324L27.5358 11.8185C27.5495 11.7999 27.5707 11.784 27.5923 11.7774C27.6106 11.7734 27.622 11.7712 27.6292 11.77H31.4009C31.4606 11.7705 31.4999 11.8174 31.5 11.8633V26.4193C31.4998 26.4355 31.4926 26.4584 31.4705 26.4803C31.4482 26.5024 31.4226 26.5112 31.4019 26.5113L27.6191 26.5113C27.6189 26.5113 27.6188 26.5113 27.6187 26.5113C27.5783 26.511 27.5337 26.4813 27.522 26.4256L27.5221 26.4255L27.5196 26.415V11.8693C27.5197 11.8687 27.5198 11.8677 27.5202 11.8661C27.5211 11.8617 27.5236 11.8511 27.5306 11.8324ZM25.1387 25.4768H6.86189V16.9808H25.1381L25.1387 25.4768Z" fill="#C31D41" fill-opacity="0.75" stroke="#C31D41"/>
</svg>
