<svg width="227" height="227" viewBox="0 0 227 227" fill="none" xmlns="http://www.w3.org/2000/svg">
<mask id="mask0_552_3079" style="mask-type:luminance" maskUnits="userSpaceOnUse" x="0" y="0" width="227" height="227">
<path d="M62.0591 7.07872H54.9803C54.9803 3.18542 58.1658 0 62.0591 0L61.5871 1.53372C61.1152 2.83149 61.1152 4.36521 61.5871 5.66297L62.0591 7.07872Z" fill="white"/>
<path d="M72.2648 7.07872C74.2195 7.07872 75.8041 5.49409 75.8041 3.53936C75.8041 1.58462 74.2195 0 72.2648 0C70.31 0 68.7254 1.58462 68.7254 3.53936C68.7254 5.49409 70.31 7.07872 72.2648 7.07872Z" fill="white"/>
<path d="M96.4217 7.07872H89.343C89.343 3.18542 92.5284 0 96.4217 0L95.9498 1.53372C95.4779 2.83149 95.4779 4.36521 95.9498 5.66297L96.4217 7.07872Z" fill="white"/>
<path d="M108.633 0.471914C107.335 0.943829 105.802 0.943829 104.504 0.471914L103.088 0C103.088 3.89329 106.274 7.07872 110.167 7.07872V0L108.633 0.471914Z" fill="white"/>
<path d="M117.039 7.07872H109.961V0H113.5C115.506 0 117.039 1.53372 117.039 3.53936V7.07872Z" fill="white"/>
<path d="M163.613 0.471914C162.316 0.943829 160.782 0.943829 159.484 0.471914L158.068 0C158.068 3.89329 161.254 7.07872 165.147 7.07872V0L163.613 0.471914Z" fill="white"/>
<path d="M172.02 7.07872H164.941V0H168.48C170.486 0 172.02 1.53372 172.02 3.53936V7.07872Z" fill="white"/>
<path d="M62.0591 6.87256H54.9803V13.9513H62.0591V6.87256Z" fill="white"/>
<path d="M61.8528 6.87256V13.9513L63.3866 13.4794C64.6843 13.0074 66.2181 13.0074 67.5158 13.4794L68.9316 13.9513C68.9316 10.058 65.7461 6.87256 61.8528 6.87256Z" fill="white"/>
<path d="M89.5492 13.9513H82.4705V10.4119C82.4705 8.40628 84.0042 6.87256 86.0098 6.87256H89.5492V13.9513Z" fill="white"/>
<path d="M96.4217 6.87256H89.343V13.9513H96.4217V6.87256Z" fill="white"/>
<path d="M103.294 13.9513H96.2156V6.87256H99.7549C101.761 6.87256 103.294 8.40628 103.294 10.4119V13.9513Z" fill="white"/>
<path d="M117.039 6.87256H109.961V13.9513H117.039V6.87256Z" fill="white"/>
<path d="M158.275 13.9513H151.196C151.196 10.058 154.381 6.87256 158.275 6.87256L157.803 8.40628C157.331 9.70405 157.331 11.2378 157.803 12.5355L158.275 13.9513Z" fill="white"/>
<path d="M172.02 6.87256H164.941V13.9513H172.02V6.87256Z" fill="white"/>
<path d="M54.9803 13.7451L55.4523 15.2788C55.9242 16.5766 55.9242 18.1103 55.4523 19.4081L54.9803 20.8238C58.8736 20.8238 62.0591 17.6384 62.0591 13.7451H54.9803Z" fill="white"/>
<path d="M72.2648 20.8238C74.2195 20.8238 75.8041 19.2392 75.8041 17.2845C75.8041 15.3297 74.2195 13.7451 72.2648 13.7451C70.31 13.7451 68.7254 15.3297 68.7254 17.2845C68.7254 19.2392 70.31 20.8238 72.2648 20.8238Z" fill="white"/>
<path d="M89.5492 13.7451H82.4705V20.8238H89.5492V13.7451Z" fill="white"/>
<path d="M103.294 13.7451H96.2156V20.8238H103.294V13.7451Z" fill="white"/>
<path d="M110.167 13.7451H103.088V20.8238H110.167V13.7451Z" fill="white"/>
<path d="M113.5 20.8238H109.961V13.7451H117.039V17.2845C117.039 19.2901 115.506 20.8238 113.5 20.8238Z" fill="white"/>
<path d="M130.784 20.8238H123.706C123.706 16.9305 126.891 13.7451 130.784 13.7451L130.313 15.2788C129.841 16.5766 129.841 18.1103 130.313 19.4081L130.784 20.8238Z" fill="white"/>
<path d="M149.868 14.217C148.571 14.6889 147.037 14.6889 145.739 14.217L144.323 13.7451C144.323 17.6384 147.509 20.8238 151.402 20.8238V13.7451L149.868 14.217Z" fill="white"/>
<path d="M158.275 13.7451H151.196V20.8238H158.275V13.7451Z" fill="white"/>
<path d="M165.147 13.7451H158.068V20.8238H165.147V13.7451Z" fill="white"/>
<path d="M172.02 13.7451H164.941V20.8238H172.02V13.7451Z" fill="white"/>
<path d="M82.4705 20.6177L82.9424 22.1514C83.4143 23.4492 83.4143 24.9829 82.9424 26.2806L82.4705 27.6964C86.3638 27.6964 89.5492 24.511 89.5492 20.6177H82.4705Z" fill="white"/>
<path d="M103.294 20.6177H96.2156V27.6964H103.294V20.6177Z" fill="white"/>
<path d="M106.627 27.6964H103.088V20.6177H110.167V24.157C110.167 26.1627 108.633 27.6964 106.627 27.6964Z" fill="white"/>
<path d="M130.784 27.6964H127.245C125.239 27.6964 123.706 26.1627 123.706 24.157V20.6177H130.784V27.6964Z" fill="white"/>
<path d="M130.578 20.6177V27.6964L132.112 27.2245C133.41 26.7526 134.943 26.7526 136.241 27.2245L137.657 27.6964C137.657 23.8031 134.472 20.6177 130.578 20.6177Z" fill="white"/>
<path d="M158.275 27.6964H154.735C152.73 27.6964 151.196 26.1627 151.196 24.157V20.6177H158.275V27.6964Z" fill="white"/>
<path d="M165.147 20.6177H158.068V27.6964H165.147V20.6177Z" fill="white"/>
<path d="M168.48 27.6964H164.941V20.6177H172.02V24.157C172.02 26.1627 170.486 27.6964 168.48 27.6964Z" fill="white"/>
<path d="M68.9316 34.569H61.8528V31.0296C61.8528 29.024 63.3866 27.4902 65.3922 27.4902H68.9316V34.569Z" fill="white"/>
<path d="M68.7254 27.4902V34.569L70.2591 34.097C71.5569 33.6251 73.0906 33.6251 74.3884 34.097L75.8041 34.569C75.8041 30.6757 72.6187 27.4902 68.7254 27.4902Z" fill="white"/>
<path d="M96.4217 34.569H89.343V31.0296C89.343 29.024 90.8767 27.4902 92.8824 27.4902H96.4217V34.569Z" fill="white"/>
<path d="M99.7549 34.569H96.2156V27.4902H103.294V31.0296C103.294 33.0352 101.761 34.569 99.7549 34.569Z" fill="white"/>
<path d="M115.506 27.9621C114.208 28.4341 112.674 28.4341 111.376 27.9621L109.961 27.4902C109.961 31.3835 113.146 34.569 117.039 34.569V27.4902L115.506 27.9621Z" fill="white"/>
<path d="M123.912 34.569H116.833V27.4902H120.373C122.378 27.4902 123.912 29.024 123.912 31.0296V34.569Z" fill="white"/>
<path d="M147.863 34.569C149.817 34.569 151.402 32.9843 151.402 31.0296C151.402 29.0749 149.817 27.4902 147.863 27.4902C145.908 27.4902 144.323 29.0749 144.323 31.0296C144.323 32.9843 145.908 34.569 147.863 34.569Z" fill="white"/>
<path d="M62.0591 41.4415H54.9803V37.9022C54.9803 35.8965 56.5141 34.3628 58.5197 34.3628H62.0591V41.4415Z" fill="white"/>
<path d="M65.3922 41.4415H61.8528V34.3628H68.9316V37.9022C68.9316 39.9078 67.3978 41.4415 65.3922 41.4415Z" fill="white"/>
<path d="M79.1373 41.4415C81.0921 41.4415 82.6767 39.8569 82.6767 37.9022C82.6767 35.9474 81.0921 34.3628 79.1373 34.3628C77.1826 34.3628 75.598 35.9474 75.598 37.9022C75.598 39.8569 77.1826 41.4415 79.1373 41.4415Z" fill="white"/>
<path d="M89.343 34.3628L89.8149 35.8965C90.2868 37.1943 90.2868 38.728 89.8149 40.0258L89.343 41.4415C93.2363 41.4415 96.4217 38.2561 96.4217 34.3628H89.343Z" fill="white"/>
<path d="M106.627 41.4415C108.582 41.4415 110.167 39.8569 110.167 37.9022C110.167 35.9474 108.582 34.3628 106.627 34.3628C104.673 34.3628 103.088 35.9474 103.088 37.9022C103.088 39.8569 104.673 41.4415 106.627 41.4415Z" fill="white"/>
<path d="M116.833 34.3628L117.305 35.8965C117.777 37.1943 117.777 38.728 117.305 40.0258L116.833 41.4415C120.726 41.4415 123.912 38.2561 123.912 34.3628H116.833Z" fill="white"/>
<path d="M158.275 41.4415H151.196V37.9022C151.196 35.8965 152.73 34.3628 154.735 34.3628H158.275V41.4415Z" fill="white"/>
<path d="M165.147 34.3628H158.068V41.4415H165.147V34.3628Z" fill="white"/>
<path d="M172.02 41.4415H164.941V34.3628H168.48C170.486 34.3628 172.02 35.8965 172.02 37.9022V41.4415Z" fill="white"/>
<path d="M62.0591 41.2354H54.9803V48.3141H62.0591V41.2354Z" fill="white"/>
<path d="M75.8041 48.3141H68.7254C68.7254 44.4208 71.9108 41.2354 75.8041 41.2354L75.3322 42.7691C74.8603 44.0668 74.8603 45.6006 75.3322 46.8983L75.8041 48.3141Z" fill="white"/>
<path d="M86.0098 48.3141C87.9646 48.3141 89.5492 46.7294 89.5492 44.7747C89.5492 42.82 87.9646 41.2354 86.0098 41.2354C84.0551 41.2354 82.4705 42.82 82.4705 44.7747C82.4705 46.7294 84.0551 48.3141 86.0098 48.3141Z" fill="white"/>
<path d="M99.7549 48.3141C101.71 48.3141 103.294 46.7294 103.294 44.7747C103.294 42.82 101.71 41.2354 99.7549 41.2354C97.8002 41.2354 96.2156 42.82 96.2156 44.7747C96.2156 46.7294 97.8002 48.3141 99.7549 48.3141Z" fill="white"/>
<path d="M113.5 48.3141C115.455 48.3141 117.039 46.7294 117.039 44.7747C117.039 42.82 115.455 41.2354 113.5 41.2354C111.545 41.2354 109.961 42.82 109.961 44.7747C109.961 46.7294 111.545 48.3141 113.5 48.3141Z" fill="white"/>
<path d="M127.245 48.3141C129.2 48.3141 130.784 46.7294 130.784 44.7747C130.784 42.82 129.2 41.2354 127.245 41.2354C125.29 41.2354 123.706 42.82 123.706 44.7747C123.706 46.7294 125.29 48.3141 127.245 48.3141Z" fill="white"/>
<path d="M144.53 48.3141H137.451C137.451 44.4208 140.636 41.2354 144.53 41.2354L144.058 42.7691C143.586 44.0668 143.586 45.6006 144.058 46.8983L144.53 48.3141Z" fill="white"/>
<path d="M151.196 41.2354L151.668 42.7691C152.14 44.0668 152.14 45.6006 151.668 46.8983L151.196 48.3141C155.089 48.3141 158.275 45.1286 158.275 41.2354H151.196Z" fill="white"/>
<path d="M164.941 41.2354L165.413 42.7691C165.885 44.0668 165.885 45.6006 165.413 46.8983L164.941 48.3141C168.834 48.3141 172.02 45.1286 172.02 41.2354H164.941Z" fill="white"/>
<path d="M62.0591 48.1077H54.9803V55.1864H62.0591V48.1077Z" fill="white"/>
<path d="M75.8041 48.1077H68.7254V55.1864H75.8041V48.1077Z" fill="white"/>
<path d="M106.627 55.1864C108.582 55.1864 110.167 53.6018 110.167 51.647C110.167 49.6923 108.582 48.1077 106.627 48.1077C104.673 48.1077 103.088 49.6923 103.088 51.647C103.088 53.6018 104.673 55.1864 106.627 55.1864Z" fill="white"/>
<path d="M136.123 48.5796C134.825 49.0515 133.292 49.0515 131.994 48.5796L130.578 48.1077C130.578 52.001 133.764 55.1864 137.657 55.1864V48.1077L136.123 48.5796Z" fill="white"/>
<path d="M144.53 48.1077H137.451V55.1864H144.53V48.1077Z" fill="white"/>
<path d="M144.323 48.1077V55.1864L145.857 54.7145C147.155 54.2426 148.689 54.2426 149.986 54.7145L151.402 55.1864C151.402 51.2931 148.217 48.1077 144.323 48.1077Z" fill="white"/>
<path d="M165.147 55.1864H158.068C158.068 51.2931 161.254 48.1077 165.147 48.1077L164.675 49.6414C164.203 50.9392 164.203 52.4729 164.675 53.7706L165.147 55.1864Z" fill="white"/>
<path d="M19.2901 55.4521C17.9923 55.9241 16.4586 55.9241 15.1608 55.4521L13.7451 54.9802C13.7451 58.8735 16.9305 62.0589 20.8238 62.0589V54.9802L19.2901 55.4521Z" fill="white"/>
<path d="M27.6963 54.9802H20.6176V62.0589H27.6963V54.9802Z" fill="white"/>
<path d="M34.5689 62.0589H27.4902V54.9802H31.0295C33.0352 54.9802 34.5689 56.5139 34.5689 58.5196V62.0589Z" fill="white"/>
<path d="M44.7746 62.0589C46.7293 62.0589 48.3139 60.4743 48.3139 58.5196C48.3139 56.5648 46.7293 54.9802 44.7746 54.9802C42.8199 54.9802 41.2352 56.5648 41.2352 58.5196C41.2352 60.4743 42.8199 62.0589 44.7746 62.0589Z" fill="white"/>
<path d="M54.9803 54.9802L55.4523 56.5139C55.9242 57.8117 55.9242 59.3454 55.4523 60.6432L54.9803 62.0589C58.8736 62.0589 62.0591 58.8735 62.0591 54.9802H54.9803Z" fill="white"/>
<path d="M75.8041 62.0589H72.2648C70.2591 62.0589 68.7254 60.5252 68.7254 58.5196V54.9802H75.8041V62.0589Z" fill="white"/>
<path d="M82.6767 62.0589H75.598V54.9802H79.1373C81.143 54.9802 82.6767 56.5139 82.6767 58.5196V62.0589Z" fill="white"/>
<path d="M92.8824 62.0589C94.8371 62.0589 96.4217 60.4743 96.4217 58.5196C96.4217 56.5648 94.8371 54.9802 92.8824 54.9802C90.9276 54.9802 89.343 56.5648 89.343 58.5196C89.343 60.4743 90.9276 62.0589 92.8824 62.0589Z" fill="white"/>
<path d="M117.039 62.0589H109.961V58.5196C109.961 56.5139 111.494 54.9802 113.5 54.9802H117.039V62.0589Z" fill="white"/>
<path d="M123.912 54.9802H116.833V62.0589H123.912V54.9802Z" fill="white"/>
<path d="M123.706 54.9802V62.0589L125.239 61.587C126.537 61.1151 128.071 61.1151 129.369 61.587L130.784 62.0589C130.784 58.1656 127.599 54.9802 123.706 54.9802Z" fill="white"/>
<path d="M156.741 55.4521C155.443 55.9241 153.909 55.9241 152.612 55.4521L151.196 54.9802C151.196 58.8735 154.381 62.0589 158.275 62.0589V54.9802L156.741 55.4521Z" fill="white"/>
<path d="M165.147 54.9802H158.068V62.0589H165.147V54.9802Z" fill="white"/>
<path d="M178.892 62.0589H171.813V58.5196C171.813 56.5139 173.347 54.9802 175.353 54.9802H178.892V62.0589Z" fill="white"/>
<path d="M185.765 54.9802H178.686V62.0589H185.765V54.9802Z" fill="white"/>
<path d="M185.559 54.9802V62.0589L187.092 61.587C188.39 61.1151 189.924 61.1151 191.222 61.587L192.637 62.0589C192.637 58.1656 189.452 54.9802 185.559 54.9802Z" fill="white"/>
<path d="M211.721 55.4521C210.423 55.9241 208.89 55.9241 207.592 55.4521L206.176 54.9802C206.176 58.8735 209.362 62.0589 213.255 62.0589V54.9802L211.721 55.4521Z" fill="white"/>
<path d="M220.127 54.9802H213.049V62.0589H220.127V54.9802Z" fill="white"/>
<path d="M227 62.0589H219.921V54.9802H223.461C225.466 54.9802 227 56.5139 227 58.5196V62.0589Z" fill="white"/>
<path d="M7.07872 68.9315H0C0 65.0382 3.18542 61.8528 7.07872 61.8528L6.6068 63.3865C6.13489 64.6843 6.13489 66.218 6.6068 67.5158L7.07872 68.9315Z" fill="white"/>
<path d="M27.6963 61.8528H20.6176V68.9315H27.6963V61.8528Z" fill="white"/>
<path d="M34.5689 61.8528H27.4902V68.9315H34.5689V61.8528Z" fill="white"/>
<path d="M34.3627 61.8528V68.9315L35.8964 68.4596C37.1942 67.9877 38.7279 67.9877 40.0256 68.4596L41.4414 68.9315C41.4414 65.0382 38.256 61.8528 34.3627 61.8528Z" fill="white"/>
<path d="M75.598 61.8528L76.0699 63.3865C76.5418 64.6843 76.5418 66.218 76.0699 67.5158L75.598 68.9315C79.4913 68.9315 82.6767 65.7461 82.6767 61.8528H75.598Z" fill="white"/>
<path d="M103.294 68.9315H96.2156C96.2156 65.0382 99.401 61.8528 103.294 61.8528L102.822 63.3865C102.35 64.6843 102.35 66.218 102.822 67.5158L103.294 68.9315Z" fill="white"/>
<path d="M117.039 68.9315H113.5C111.494 68.9315 109.961 67.3978 109.961 65.3921V61.8528H117.039V68.9315Z" fill="white"/>
<path d="M120.373 68.9315H116.833V61.8528H123.912V65.3921C123.912 67.3978 122.378 68.9315 120.373 68.9315Z" fill="white"/>
<path d="M151.402 68.9315H144.323C144.323 65.0382 147.509 61.8528 151.402 61.8528L150.93 63.3865C150.458 64.6843 150.458 66.218 150.93 67.5158L151.402 68.9315Z" fill="white"/>
<path d="M158.068 61.8528L158.54 63.3865C159.012 64.6843 159.012 66.218 158.54 67.5158L158.068 68.9315C161.962 68.9315 165.147 65.7461 165.147 61.8528H158.068Z" fill="white"/>
<path d="M178.892 68.9315H175.353C173.347 68.9315 171.813 67.3978 171.813 65.3921V61.8528H178.892V68.9315Z" fill="white"/>
<path d="M182.225 68.9315H178.686V61.8528H185.765V65.3921C185.765 67.3978 184.231 68.9315 182.225 68.9315Z" fill="white"/>
<path d="M206.382 68.9315H199.304C199.304 65.0382 202.489 61.8528 206.382 61.8528L205.91 63.3865C205.439 64.6843 205.439 66.218 205.91 67.5158L206.382 68.9315Z" fill="white"/>
<path d="M219.921 61.8528L220.393 63.3865C220.865 64.6843 220.865 66.218 220.393 67.5158L219.921 68.9315C223.815 68.9315 227 65.7461 227 61.8528H219.921Z" fill="white"/>
<path d="M7.07872 68.7253H0V75.8041H7.07872V68.7253Z" fill="white"/>
<path d="M20.8238 75.8041H13.7451V72.2647C13.7451 70.2591 15.2788 68.7253 17.2844 68.7253H20.8238V75.8041Z" fill="white"/>
<path d="M27.6963 68.7253H20.6176V75.8041H27.6963V68.7253Z" fill="white"/>
<path d="M34.5689 68.7253H27.4902V75.8041H34.5689V68.7253Z" fill="white"/>
<path d="M44.7746 75.8041C46.7293 75.8041 48.3139 74.2194 48.3139 72.2647C48.3139 70.31 46.7293 68.7253 44.7746 68.7253C42.8199 68.7253 41.2352 70.31 41.2352 72.2647C41.2352 74.2194 42.8199 75.8041 44.7746 75.8041Z" fill="white"/>
<path d="M62.0591 75.8041H54.9803C54.9803 71.9108 58.1658 68.7253 62.0591 68.7253L61.5871 70.2591C61.1152 71.5568 61.1152 73.0906 61.5871 74.3883L62.0591 75.8041Z" fill="white"/>
<path d="M72.2648 75.8041C74.2195 75.8041 75.8041 74.2194 75.8041 72.2647C75.8041 70.31 74.2195 68.7253 72.2648 68.7253C70.31 68.7253 68.7254 70.31 68.7254 72.2647C68.7254 74.2194 70.31 75.8041 72.2648 75.8041Z" fill="white"/>
<path d="M96.2156 68.7253L96.6875 70.2591C97.1594 71.5568 97.1594 73.0906 96.6875 74.3883L96.2156 75.8041C100.109 75.8041 103.294 72.6186 103.294 68.7253H96.2156Z" fill="white"/>
<path d="M130.784 75.8041H123.706V72.2647C123.706 70.2591 125.239 68.7253 127.245 68.7253H130.784V75.8041Z" fill="white"/>
<path d="M137.657 68.7253H130.578V75.8041H137.657V68.7253Z" fill="white"/>
<path d="M144.53 68.7253H137.451V75.8041H144.53V68.7253Z" fill="white"/>
<path d="M151.402 68.7253H144.323V75.8041H151.402V68.7253Z" fill="white"/>
<path d="M189.098 75.8041C191.053 75.8041 192.637 74.2194 192.637 72.2647C192.637 70.31 191.053 68.7253 189.098 68.7253C187.143 68.7253 185.559 70.31 185.559 72.2647C185.559 74.2194 187.143 75.8041 189.098 75.8041Z" fill="white"/>
<path d="M206.382 68.7253H199.304V75.8041H206.382V68.7253Z" fill="white"/>
<path d="M213.255 68.7253H206.176V75.8041H213.255V68.7253Z" fill="white"/>
<path d="M213.049 68.7253V75.8041L214.582 75.3321C215.88 74.8602 217.414 74.8602 218.712 75.3321L220.127 75.8041C220.127 71.9108 216.942 68.7253 213.049 68.7253Z" fill="white"/>
<path d="M7.07872 75.5979H0V82.6766H7.07872V75.5979Z" fill="white"/>
<path d="M20.8238 82.6766H17.2844C15.2788 82.6766 13.7451 81.1429 13.7451 79.1373V75.5979H20.8238V82.6766Z" fill="white"/>
<path d="M27.6963 75.5979H20.6176V82.6766H27.6963V75.5979Z" fill="white"/>
<path d="M31.0295 82.6766H27.4902V75.5979H34.5689V79.1373C34.5689 81.1429 33.0352 82.6766 31.0295 82.6766Z" fill="white"/>
<path d="M55.1865 82.6766H48.1078V79.1373C48.1078 77.1316 49.6415 75.5979 51.6471 75.5979H55.1865V82.6766Z" fill="white"/>
<path d="M58.5197 82.6766H54.9803V75.5979H62.0591V79.1373C62.0591 81.1429 60.5253 82.6766 58.5197 82.6766Z" fill="white"/>
<path d="M82.6767 82.6766H75.598V79.1373C75.598 77.1316 77.1317 75.5979 79.1373 75.5979H82.6767V82.6766Z" fill="white"/>
<path d="M82.4705 75.5979V82.6766L84.0042 82.2047C85.3019 81.7328 86.8357 81.7328 88.1334 82.2047L89.5492 82.6766C89.5492 78.7833 86.3638 75.5979 82.4705 75.5979Z" fill="white"/>
<path d="M130.784 75.5979H123.706V82.6766H130.784V75.5979Z" fill="white"/>
<path d="M134.118 82.6766H130.578V75.5979H137.657V79.1373C137.657 81.1429 136.123 82.6766 134.118 82.6766Z" fill="white"/>
<path d="M151.402 75.5979H144.323V82.6766H151.402V75.5979Z" fill="white"/>
<path d="M151.196 75.5979V82.6766L152.73 82.2047C154.027 81.7328 155.561 81.7328 156.859 82.2047L158.275 82.6766C158.275 78.7833 155.089 75.5979 151.196 75.5979Z" fill="white"/>
<path d="M178.892 82.6766H171.813V79.1373C171.813 77.1316 173.347 75.5979 175.353 75.5979H178.892V82.6766Z" fill="white"/>
<path d="M178.686 75.5979V82.6766L180.22 82.2047C181.518 81.7328 183.051 81.7328 184.349 82.2047L185.765 82.6766C185.765 78.7833 182.579 75.5979 178.686 75.5979Z" fill="white"/>
<path d="M206.382 82.6766H202.843C200.837 82.6766 199.304 81.1429 199.304 79.1373V75.5979H206.382V82.6766Z" fill="white"/>
<path d="M209.716 82.6766H206.176V75.5979H213.255V79.1373C213.255 81.1429 211.721 82.6766 209.716 82.6766Z" fill="white"/>
<path d="M223.461 82.6766C225.415 82.6766 227 81.092 227 79.1373C227 77.1825 225.415 75.5979 223.461 75.5979C221.506 75.5979 219.921 77.1825 219.921 79.1373C219.921 81.092 221.506 82.6766 223.461 82.6766Z" fill="white"/>
<path d="M7.07872 82.4705H0V89.5492H7.07872V82.4705Z" fill="white"/>
<path d="M46.7802 82.9424C45.4825 83.4143 43.9487 83.4143 42.651 82.9424L41.2352 82.4705C41.2352 86.3638 44.4207 89.5492 48.3139 89.5492V82.4705L46.7802 82.9424Z" fill="white"/>
<path d="M55.1865 82.4705H48.1078V89.5492H55.1865V82.4705Z" fill="white"/>
<path d="M67.3978 82.9424C66.1001 83.4143 64.5664 83.4143 63.2686 82.9424L61.8528 82.4705C61.8528 86.3638 65.0383 89.5492 68.9316 89.5492V82.4705L67.3978 82.9424Z" fill="white"/>
<path d="M75.8041 82.4705H68.7254V89.5492H75.8041V82.4705Z" fill="white"/>
<path d="M79.1373 89.5492H75.598V82.4705H82.6767V86.0098C82.6767 88.0155 81.143 89.5492 79.1373 89.5492Z" fill="white"/>
<path d="M110.167 89.5492H103.088V86.0098C103.088 84.0042 104.622 82.4705 106.627 82.4705H110.167V89.5492Z" fill="white"/>
<path d="M117.039 82.4705H109.961V89.5492H117.039V82.4705Z" fill="white"/>
<path d="M123.912 82.4705H116.833V89.5492H123.912V82.4705Z" fill="white"/>
<path d="M127.245 89.5492H123.706V82.4705H130.784V86.0098C130.784 88.0155 129.251 89.5492 127.245 89.5492Z" fill="white"/>
<path d="M142.996 82.9424C141.698 83.4143 140.164 83.4143 138.867 82.9424L137.451 82.4705C137.451 86.3638 140.636 89.5492 144.53 89.5492V82.4705L142.996 82.9424Z" fill="white"/>
<path d="M147.863 89.5492H144.323V82.4705H151.402V86.0098C151.402 88.0155 149.868 89.5492 147.863 89.5492Z" fill="white"/>
<path d="M172.02 89.5492H164.941V86.0098C164.941 84.0042 166.475 82.4705 168.48 82.4705H172.02V89.5492Z" fill="white"/>
<path d="M175.353 89.5492H171.813V82.4705H178.892V86.0098C178.892 88.0155 177.358 89.5492 175.353 89.5492Z" fill="white"/>
<path d="M216.588 89.5492C218.543 89.5492 220.127 87.9646 220.127 86.0098C220.127 84.0551 218.543 82.4705 216.588 82.4705C214.633 82.4705 213.049 84.0551 213.049 86.0098C213.049 87.9646 214.633 89.5492 216.588 89.5492Z" fill="white"/>
<path d="M7.07872 89.343H0V96.4217H7.07872V89.343Z" fill="white"/>
<path d="M20.8238 96.4217H13.7451C13.7451 92.5284 16.9305 89.343 20.8238 89.343L20.3519 90.8767C19.8799 92.1745 19.8799 93.7082 20.3519 95.006L20.8238 96.4217Z" fill="white"/>
<path d="M31.0295 96.4217C32.9843 96.4217 34.5689 94.8371 34.5689 92.8824C34.5689 90.9276 32.9843 89.343 31.0295 89.343C29.0748 89.343 27.4902 90.9276 27.4902 92.8824C27.4902 94.8371 29.0748 96.4217 31.0295 96.4217Z" fill="white"/>
<path d="M48.1078 89.343L48.5797 90.8767C49.0516 92.1745 49.0516 93.7082 48.5797 95.006L48.1078 96.4217C52.0011 96.4217 55.1865 93.2363 55.1865 89.343H48.1078Z" fill="white"/>
<path d="M75.8041 89.343H68.7254V96.4217H75.8041V89.343Z" fill="white"/>
<path d="M110.167 96.4217H106.627C104.622 96.4217 103.088 94.888 103.088 92.8824V89.343H110.167V96.4217Z" fill="white"/>
<path d="M117.039 89.343H109.961V96.4217H117.039V89.343Z" fill="white"/>
<path d="M120.373 96.4217H116.833V89.343H123.912V92.8824C123.912 94.888 122.378 96.4217 120.373 96.4217Z" fill="white"/>
<path d="M137.657 96.4217H130.578C130.578 92.5284 133.764 89.343 137.657 89.343L137.185 90.8767C136.713 92.1745 136.713 93.7082 137.185 95.006L137.657 96.4217Z" fill="white"/>
<path d="M158.275 96.4217H151.196V92.8824C151.196 90.8767 152.73 89.343 154.735 89.343H158.275V96.4217Z" fill="white"/>
<path d="M165.147 89.343H158.068V96.4217H165.147V89.343Z" fill="white"/>
<path d="M168.48 96.4217H164.941V89.343H172.02V92.8824C172.02 94.888 170.486 96.4217 168.48 96.4217Z" fill="white"/>
<path d="M185.765 96.4217H178.686V92.8824C178.686 90.8767 180.22 89.343 182.225 89.343H185.765V96.4217Z" fill="white"/>
<path d="M185.559 89.343V96.4217L187.092 95.9498C188.39 95.4779 189.924 95.4779 191.222 95.9498L192.637 96.4217C192.637 92.5284 189.452 89.343 185.559 89.343Z" fill="white"/>
<path d="M213.255 96.4217H206.176C206.176 92.5284 209.362 89.343 213.255 89.343L212.783 90.8767C212.311 92.1745 212.311 93.7082 212.783 95.006L213.255 96.4217Z" fill="white"/>
<path d="M223.461 96.4217C225.415 96.4217 227 94.8371 227 92.8824C227 90.9276 225.415 89.343 223.461 89.343C221.506 89.343 219.921 90.9276 219.921 92.8824C219.921 94.8371 221.506 96.4217 223.461 96.4217Z" fill="white"/>
<path d="M7.07872 96.2156H0V103.294H7.07872V96.2156Z" fill="white"/>
<path d="M13.9513 96.2156H6.87256V103.294H13.9513V96.2156Z" fill="white"/>
<path d="M17.2844 103.294H13.7451V96.2156H20.8238V99.7549C20.8238 101.761 19.2901 103.294 17.2844 103.294Z" fill="white"/>
<path d="M41.4414 103.294H34.3627V99.7549C34.3627 97.7493 35.8964 96.2156 37.902 96.2156H41.4414V103.294Z" fill="white"/>
<path d="M41.2352 96.2156V103.294L42.769 102.822C44.0667 102.35 45.6004 102.35 46.8982 102.822L48.3139 103.294C48.3139 99.401 45.1285 96.2156 41.2352 96.2156Z" fill="white"/>
<path d="M58.5197 103.294C60.4744 103.294 62.0591 101.71 62.0591 99.7549C62.0591 97.8002 60.4744 96.2156 58.5197 96.2156C56.565 96.2156 54.9803 97.8002 54.9803 99.7549C54.9803 101.71 56.565 103.294 58.5197 103.294Z" fill="white"/>
<path d="M75.8041 96.2156H68.7254V103.294H75.8041V96.2156Z" fill="white"/>
<path d="M82.6767 96.2156H75.598V103.294H82.6767V96.2156Z" fill="white"/>
<path d="M82.4705 96.2156V103.294L84.0042 102.822C85.3019 102.35 86.8357 102.35 88.1334 102.822L89.5492 103.294C89.5492 99.401 86.3638 96.2156 82.4705 96.2156Z" fill="white"/>
<path d="M117.039 96.2156H109.961V103.294H117.039V96.2156Z" fill="white"/>
<path d="M130.784 103.294H123.706V99.7549C123.706 97.7493 125.239 96.2156 127.245 96.2156H130.784V103.294Z" fill="white"/>
<path d="M134.118 103.294H130.578V96.2156H137.657V99.7549C137.657 101.761 136.123 103.294 134.118 103.294Z" fill="white"/>
<path d="M158.275 96.2156H151.196V103.294H158.275V96.2156Z" fill="white"/>
<path d="M178.686 96.2156L179.158 97.7493C179.63 99.0471 179.63 100.581 179.158 101.879L178.686 103.294C182.579 103.294 185.765 100.109 185.765 96.2156H178.686Z" fill="white"/>
<path d="M204.849 96.6875C203.551 97.1594 202.017 97.1594 200.719 96.6875L199.304 96.2156C199.304 100.109 202.489 103.294 206.382 103.294V96.2156L204.849 96.6875Z" fill="white"/>
<path d="M213.255 96.2156H206.176V103.294H213.255V96.2156Z" fill="white"/>
<path d="M220.127 103.294H213.049V96.2156H216.588C218.594 96.2156 220.127 97.7493 220.127 99.7549V103.294Z" fill="white"/>
<path d="M7.07872 103.088H0V110.167H7.07872V103.088Z" fill="white"/>
<path d="M41.4414 103.088H34.3627V110.167H41.4414V103.088Z" fill="white"/>
<path d="M55.1865 110.167H48.1078C48.1078 106.274 51.2932 103.088 55.1865 103.088L54.7146 104.622C54.2427 105.92 54.2427 107.453 54.7146 108.751L55.1865 110.167Z" fill="white"/>
<path d="M75.8041 110.167H72.2648C70.2591 110.167 68.7254 108.633 68.7254 106.627V103.088H75.8041V110.167Z" fill="white"/>
<path d="M79.1373 110.167H75.598V103.088H82.6767V106.627C82.6767 108.633 81.143 110.167 79.1373 110.167Z" fill="white"/>
<path d="M117.039 103.088H109.961V110.167H117.039V103.088Z" fill="white"/>
<path d="M123.912 103.088H116.833V110.167H123.912V103.088Z" fill="white"/>
<path d="M130.784 103.088H123.706V110.167H130.784V103.088Z" fill="white"/>
<path d="M149.868 103.56C148.571 104.032 147.037 104.032 145.739 103.56L144.323 103.088C144.323 106.981 147.509 110.167 151.402 110.167V103.088L149.868 103.56Z" fill="white"/>
<path d="M154.735 110.167H151.196V103.088H158.275V106.627C158.275 108.633 156.741 110.167 154.735 110.167Z" fill="white"/>
<path d="M192.637 110.167H185.559C185.559 106.274 188.744 103.088 192.637 103.088L192.165 104.622C191.693 105.92 191.693 107.453 192.165 108.751L192.637 110.167Z" fill="white"/>
<path d="M213.255 103.088H206.176V110.167H213.255V103.088Z" fill="white"/>
<path d="M216.588 110.167H213.049V103.088H220.127V106.627C220.127 108.633 218.594 110.167 216.588 110.167Z" fill="white"/>
<path d="M7.07872 109.961H0V117.039H7.07872V109.961Z" fill="white"/>
<path d="M20.8238 117.039H13.7451V113.5C13.7451 111.494 15.2788 109.961 17.2844 109.961H20.8238V117.039Z" fill="white"/>
<path d="M27.6963 109.961H20.6176V117.039H27.6963V109.961Z" fill="white"/>
<path d="M34.5689 109.961H27.4902V117.039H34.5689V109.961Z" fill="white"/>
<path d="M41.4414 109.961H34.3627V117.039H41.4414V109.961Z" fill="white"/>
<path d="M48.3139 109.961H41.2352V117.039H48.3139V109.961Z" fill="white"/>
<path d="M55.1865 109.961H48.1078V117.039H55.1865V109.961Z" fill="white"/>
<path d="M92.8824 117.039C94.8371 117.039 96.4217 115.455 96.4217 113.5C96.4217 111.545 94.8371 109.961 92.8824 109.961C90.9276 109.961 89.343 111.545 89.343 113.5C89.343 115.455 90.9276 117.039 92.8824 117.039Z" fill="white"/>
<path d="M109.961 109.961L110.433 111.494C110.904 112.792 110.904 114.326 110.433 115.624L109.961 117.039C113.854 117.039 117.039 113.854 117.039 109.961H109.961Z" fill="white"/>
<path d="M130.784 117.039H127.245C125.239 117.039 123.706 115.506 123.706 113.5V109.961H130.784V117.039Z" fill="white"/>
<path d="M137.657 117.039H130.578V109.961H134.118C136.123 109.961 137.657 111.494 137.657 113.5V117.039Z" fill="white"/>
<path d="M165.147 117.039H158.068C158.068 113.146 161.254 109.961 165.147 109.961L164.675 111.494C164.203 112.792 164.203 114.326 164.675 115.624L165.147 117.039Z" fill="white"/>
<path d="M175.353 117.039C177.308 117.039 178.892 115.455 178.892 113.5C178.892 111.545 177.308 109.961 175.353 109.961C173.398 109.961 171.813 111.545 171.813 113.5C171.813 115.455 173.398 117.039 175.353 117.039Z" fill="white"/>
<path d="M192.637 117.039H189.098C187.092 117.039 185.559 115.506 185.559 113.5V109.961H192.637V117.039Z" fill="white"/>
<path d="M199.51 109.961H192.431V117.039H199.51V109.961Z" fill="white"/>
<path d="M206.382 109.961H199.304V117.039H206.382V109.961Z" fill="white"/>
<path d="M209.716 117.039H206.176V109.961H213.255V113.5C213.255 115.506 211.721 117.039 209.716 117.039Z" fill="white"/>
<path d="M223.461 117.039C225.415 117.039 227 115.455 227 113.5C227 111.545 225.415 109.961 223.461 109.961C221.506 109.961 219.921 111.545 219.921 113.5C219.921 115.455 221.506 117.039 223.461 117.039Z" fill="white"/>
<path d="M7.07872 123.912H3.53936C1.53372 123.912 0 122.378 0 120.373V116.833H7.07872V123.912Z" fill="white"/>
<path d="M13.9513 116.833H6.87256V123.912H13.9513V116.833Z" fill="white"/>
<path d="M20.8238 116.833H13.7451V123.912H20.8238V116.833Z" fill="white"/>
<path d="M27.6963 116.833H20.6176V123.912H27.6963V116.833Z" fill="white"/>
<path d="M34.5689 116.833H27.4902V123.912H34.5689V116.833Z" fill="white"/>
<path d="M37.902 123.912H34.3627V116.833H41.4414V120.373C41.4414 122.378 39.9077 123.912 37.902 123.912Z" fill="white"/>
<path d="M55.1865 116.833H48.1078V123.912H55.1865V116.833Z" fill="white"/>
<path d="M75.8041 123.912H68.7254V120.373C68.7254 118.367 70.2591 116.833 72.2648 116.833H75.8041V123.912Z" fill="white"/>
<path d="M82.6767 116.833H75.598V123.912H82.6767V116.833Z" fill="white"/>
<path d="M89.5492 123.912H82.4705V116.833H86.0098C88.0155 116.833 89.5492 118.367 89.5492 120.373V123.912Z" fill="white"/>
<path d="M99.7549 123.912C101.71 123.912 103.294 122.327 103.294 120.373C103.294 118.418 101.71 116.833 99.7549 116.833C97.8002 116.833 96.2156 118.418 96.2156 120.373C96.2156 122.327 97.8002 123.912 99.7549 123.912Z" fill="white"/>
<path d="M137.657 123.912H134.118C132.112 123.912 130.578 122.378 130.578 120.373V116.833H137.657V123.912Z" fill="white"/>
<path d="M144.53 116.833H137.451V123.912H144.53V116.833Z" fill="white"/>
<path d="M151.402 123.912H144.323V116.833H147.863C149.868 116.833 151.402 118.367 151.402 120.373V123.912Z" fill="white"/>
<path d="M165.147 123.912H161.608C159.602 123.912 158.068 122.378 158.068 120.373V116.833H165.147V123.912Z" fill="white"/>
<path d="M164.941 116.833V123.912L166.475 123.44C167.772 122.968 169.306 122.968 170.604 123.44L172.02 123.912C172.02 120.019 168.834 116.833 164.941 116.833Z" fill="white"/>
<path d="M185.765 123.912H178.686C178.686 120.019 181.871 116.833 185.765 116.833L185.293 118.367C184.821 119.665 184.821 121.198 185.293 122.496L185.765 123.912Z" fill="white"/>
<path d="M13.9513 123.706H6.87256V130.785H13.9513V123.706Z" fill="white"/>
<path d="M27.6963 123.706H20.6176V130.785H27.6963V123.706Z" fill="white"/>
<path d="M34.5689 123.706H27.4902V130.785H34.5689V123.706Z" fill="white"/>
<path d="M46.7802 124.178C45.4825 124.65 43.9487 124.65 42.651 124.178L41.2352 123.706C41.2352 127.599 44.4207 130.785 48.3139 130.785V123.706L46.7802 124.178Z" fill="white"/>
<path d="M51.6471 130.785H48.1078V123.706H55.1865V127.245C55.1865 129.251 53.6528 130.785 51.6471 130.785Z" fill="white"/>
<path d="M68.7254 123.706L69.1973 125.24C69.6692 126.537 69.6692 128.071 69.1973 129.369L68.7254 130.785C72.6187 130.785 75.8041 127.599 75.8041 123.706H68.7254Z" fill="white"/>
<path d="M89.5492 123.706H82.4705V130.785H89.5492V123.706Z" fill="white"/>
<path d="M108.633 124.178C107.335 124.65 105.802 124.65 104.504 124.178L103.088 123.706C103.088 127.599 106.274 130.785 110.167 130.785V123.706L108.633 124.178Z" fill="white"/>
<path d="M117.039 123.706H109.961V130.785H117.039V123.706Z" fill="white"/>
<path d="M123.912 130.785H116.833V123.706H120.373C122.378 123.706 123.912 125.24 123.912 127.245V130.785Z" fill="white"/>
<path d="M151.402 123.706H144.323V130.785H151.402V123.706Z" fill="white"/>
<path d="M151.196 123.706V130.785L152.73 130.313C154.027 129.841 155.561 129.841 156.859 130.313L158.275 130.785C158.275 126.891 155.089 123.706 151.196 123.706Z" fill="white"/>
<path d="M177.358 124.178C176.061 124.65 174.527 124.65 173.229 124.178L171.813 123.706C171.813 127.599 174.999 130.785 178.892 130.785V123.706L177.358 124.178Z" fill="white"/>
<path d="M185.765 123.706H178.686V130.785H185.765V123.706Z" fill="white"/>
<path d="M192.637 123.706H185.559V130.785H192.637V123.706Z" fill="white"/>
<path d="M199.51 130.785H192.431V123.706H195.971C197.976 123.706 199.51 125.24 199.51 127.245V130.785Z" fill="white"/>
<path d="M213.255 130.785H206.176V127.245C206.176 125.24 207.71 123.706 209.716 123.706H213.255V130.785Z" fill="white"/>
<path d="M220.127 123.706H213.049V130.785H220.127V123.706Z" fill="white"/>
<path d="M227 130.785H219.921V123.706H223.461C225.466 123.706 227 125.24 227 127.245V130.785Z" fill="white"/>
<path d="M13.9513 130.578H6.87256V137.657H13.9513V130.578Z" fill="white"/>
<path d="M27.6963 130.578H20.6176V137.657H27.6963V130.578Z" fill="white"/>
<path d="M31.0295 137.657H27.4902V130.578H34.5689V134.118C34.5689 136.123 33.0352 137.657 31.0295 137.657Z" fill="white"/>
<path d="M58.5197 137.657C60.4744 137.657 62.0591 136.072 62.0591 134.118C62.0591 132.163 60.4744 130.578 58.5197 130.578C56.565 130.578 54.9803 132.163 54.9803 134.118C54.9803 136.072 56.565 137.657 58.5197 137.657Z" fill="white"/>
<path d="M89.5492 137.657H86.0098C84.0042 137.657 82.4705 136.123 82.4705 134.118V130.578H89.5492V137.657Z" fill="white"/>
<path d="M96.4217 130.578H89.343V137.657H96.4217V130.578Z" fill="white"/>
<path d="M103.294 137.657H96.2156V130.578H99.7549C101.761 130.578 103.294 132.112 103.294 134.118V137.657Z" fill="white"/>
<path d="M117.039 137.657H113.5C111.494 137.657 109.961 136.123 109.961 134.118V130.578H117.039V137.657Z" fill="white"/>
<path d="M123.912 130.578H116.833V137.657H123.912V130.578Z" fill="white"/>
<path d="M130.784 130.578H123.706V137.657H130.784V130.578Z" fill="white"/>
<path d="M130.578 130.578V137.657L132.112 137.185C133.41 136.713 134.943 136.713 136.241 137.185L137.657 137.657C137.657 133.764 134.472 130.578 130.578 130.578Z" fill="white"/>
<path d="M151.402 130.578H144.323V137.657H151.402V130.578Z" fill="white"/>
<path d="M163.613 131.05C162.316 131.522 160.782 131.522 159.484 131.05L158.068 130.578C158.068 134.472 161.254 137.657 165.147 137.657V130.578L163.613 131.05Z" fill="white"/>
<path d="M164.941 130.578V137.657L166.475 137.185C167.772 136.713 169.306 136.713 170.604 137.185L172.02 137.657C172.02 133.764 168.834 130.578 164.941 130.578Z" fill="white"/>
<path d="M185.765 130.578H178.686V137.657H185.765V130.578Z" fill="white"/>
<path d="M192.637 130.578H185.559V137.657H192.637V130.578Z" fill="white"/>
<path d="M199.51 130.578H192.431V137.657H199.51V130.578Z" fill="white"/>
<path d="M206.382 130.578H199.304V137.657H206.382V130.578Z" fill="white"/>
<path d="M209.716 137.657H206.176V130.578H213.255V134.118C213.255 136.123 211.721 137.657 209.716 137.657Z" fill="white"/>
<path d="M227 130.578H219.921V137.657H227V130.578Z" fill="white"/>
<path d="M6.87256 137.451L7.34447 138.984C7.81639 140.282 7.81639 141.816 7.34447 143.114L6.87256 144.529C10.7659 144.529 13.9513 141.344 13.9513 137.451H6.87256Z" fill="white"/>
<path d="M27.6963 137.451H20.6176V144.529H27.6963V137.451Z" fill="white"/>
<path d="M44.7746 144.529C46.7293 144.529 48.3139 142.945 48.3139 140.99C48.3139 139.035 46.7293 137.451 44.7746 137.451C42.8199 137.451 41.2352 139.035 41.2352 140.99C41.2352 142.945 42.8199 144.529 44.7746 144.529Z" fill="white"/>
<path d="M96.4217 137.451H89.343V144.529H96.4217V137.451Z" fill="white"/>
<path d="M103.294 137.451H96.2156V144.529H103.294V137.451Z" fill="white"/>
<path d="M103.088 137.451V144.529L104.622 144.057C105.92 143.586 107.453 143.586 108.751 144.057L110.167 144.529C110.167 140.636 106.981 137.451 103.088 137.451Z" fill="white"/>
<path d="M116.833 137.451L117.305 138.984C117.777 140.282 117.777 141.816 117.305 143.114L116.833 144.529C120.726 144.529 123.912 141.344 123.912 137.451H116.833Z" fill="white"/>
<path d="M151.402 137.451H144.323V144.529H151.402V137.451Z" fill="white"/>
<path d="M158.275 144.529H151.196V137.451H154.735C156.741 137.451 158.275 138.984 158.275 140.99V144.529Z" fill="white"/>
<path d="M177.358 137.923C176.061 138.395 174.527 138.395 173.229 137.923L171.813 137.451C171.813 141.344 174.999 144.529 178.892 144.529V137.451L177.358 137.923Z" fill="white"/>
<path d="M185.765 137.451H178.686V144.529H185.765V137.451Z" fill="white"/>
<path d="M192.637 137.451H185.559V144.529H192.637V137.451Z" fill="white"/>
<path d="M199.51 137.451H192.431V144.529H199.51V137.451Z" fill="white"/>
<path d="M202.843 144.529H199.304V137.451H206.382V140.99C206.382 142.996 204.849 144.529 202.843 144.529Z" fill="white"/>
<path d="M218.594 137.923C217.296 138.395 215.762 138.395 214.465 137.923L213.049 137.451C213.049 141.344 216.234 144.529 220.127 144.529V137.451L218.594 137.923Z" fill="white"/>
<path d="M227 137.451H219.921V144.529H227V137.451Z" fill="white"/>
<path d="M7.07872 151.402H0C0 147.509 3.18542 144.323 7.07872 144.323L6.6068 145.857C6.13489 147.155 6.13489 148.688 6.6068 149.986L7.07872 151.402Z" fill="white"/>
<path d="M20.8238 151.402H13.7451V147.863C13.7451 145.857 15.2788 144.323 17.2844 144.323H20.8238V151.402Z" fill="white"/>
<path d="M27.6963 144.323H20.6176V151.402H27.6963V144.323Z" fill="white"/>
<path d="M34.5689 144.323H27.4902V151.402H34.5689V144.323Z" fill="white"/>
<path d="M41.4414 151.402H34.3627V144.323H37.902C39.9077 144.323 41.4414 145.857 41.4414 147.863V151.402Z" fill="white"/>
<path d="M55.1865 151.402H48.1078V147.863C48.1078 145.857 49.6415 144.323 51.6471 144.323H55.1865V151.402Z" fill="white"/>
<path d="M54.9803 144.323V151.402L56.5141 150.93C57.8118 150.458 59.3456 150.458 60.6433 150.93L62.0591 151.402C62.0591 147.509 58.8736 144.323 54.9803 144.323Z" fill="white"/>
<path d="M81.143 144.795C79.8452 145.267 78.3115 145.267 77.0137 144.795L75.598 144.323C75.598 148.217 78.7834 151.402 82.6767 151.402V144.323L81.143 144.795Z" fill="white"/>
<path d="M89.5492 144.323H82.4705V151.402H89.5492V144.323Z" fill="white"/>
<path d="M96.4217 144.323H89.343V151.402H96.4217V144.323Z" fill="white"/>
<path d="M99.7549 151.402H96.2156V144.323H103.294V147.863C103.294 149.868 101.761 151.402 99.7549 151.402Z" fill="white"/>
<path d="M144.53 151.402H137.451V147.863C137.451 145.857 138.985 144.323 140.99 144.323H144.53V151.402Z" fill="white"/>
<path d="M151.402 144.323H144.323V151.402H151.402V144.323Z" fill="white"/>
<path d="M154.735 151.402H151.196V144.323H158.275V147.863C158.275 149.868 156.741 151.402 154.735 151.402Z" fill="white"/>
<path d="M168.48 151.402C170.435 151.402 172.02 149.817 172.02 147.863C172.02 145.908 170.435 144.323 168.48 144.323C166.526 144.323 164.941 145.908 164.941 147.863C164.941 149.817 166.526 151.402 168.48 151.402Z" fill="white"/>
<path d="M219.921 144.323L220.393 145.857C220.865 147.155 220.865 148.688 220.393 149.986L219.921 151.402C223.815 151.402 227 148.217 227 144.323H219.921Z" fill="white"/>
<path d="M7.07872 151.196H0V158.275H7.07872V151.196Z" fill="white"/>
<path d="M13.7451 151.196L14.217 152.73C14.6889 154.027 14.6889 155.561 14.217 156.859L13.7451 158.275C17.6384 158.275 20.8238 155.089 20.8238 151.196H13.7451Z" fill="white"/>
<path d="M34.5689 158.275H31.0295C29.0239 158.275 27.4902 156.741 27.4902 154.735V151.196H34.5689V158.275Z" fill="white"/>
<path d="M41.4414 151.196H34.3627V158.275H41.4414V151.196Z" fill="white"/>
<path d="M48.3139 151.196H41.2352V158.275H48.3139V151.196Z" fill="white"/>
<path d="M51.6471 158.275H48.1078V151.196H55.1865V154.735C55.1865 156.741 53.6528 158.275 51.6471 158.275Z" fill="white"/>
<path d="M75.8041 158.275H68.7254C68.7254 154.381 71.9108 151.196 75.8041 151.196L75.3322 152.73C74.8603 154.027 74.8603 155.561 75.3322 156.859L75.8041 158.275Z" fill="white"/>
<path d="M89.5492 158.275H86.0098C84.0042 158.275 82.4705 156.741 82.4705 154.735V151.196H89.5492V158.275Z" fill="white"/>
<path d="M92.8824 158.275H89.343V151.196H96.4217V154.735C96.4217 156.741 94.888 158.275 92.8824 158.275Z" fill="white"/>
<path d="M115.506 151.668C114.208 152.14 112.674 152.14 111.376 151.668L109.961 151.196C109.961 155.089 113.146 158.275 117.039 158.275V151.196L115.506 151.668Z" fill="white"/>
<path d="M123.912 151.196H116.833V158.275H123.912V151.196Z" fill="white"/>
<path d="M123.706 151.196V158.275L125.239 157.803C126.537 157.331 128.071 157.331 129.369 157.803L130.784 158.275C130.784 154.381 127.599 151.196 123.706 151.196Z" fill="white"/>
<path d="M144.53 151.196H137.451V158.275H144.53V151.196Z" fill="white"/>
<path d="M151.402 151.196H144.323V158.275H151.402V151.196Z" fill="white"/>
<path d="M191.104 151.668C189.806 152.14 188.272 152.14 186.974 151.668L185.559 151.196C185.559 155.089 188.744 158.275 192.637 158.275V151.196L191.104 151.668Z" fill="white"/>
<path d="M199.51 151.196H192.431V158.275H199.51V151.196Z" fill="white"/>
<path d="M199.304 151.196V158.275L200.837 157.803C202.135 157.331 203.669 157.331 204.967 157.803L206.382 158.275C206.382 154.381 203.197 151.196 199.304 151.196Z" fill="white"/>
<path d="M220.127 158.275H213.049C213.049 154.381 216.234 151.196 220.127 151.196L219.656 152.73C219.184 154.027 219.184 155.561 219.656 156.859L220.127 158.275Z" fill="white"/>
<path d="M7.07872 158.068H0V165.147H7.07872V158.068Z" fill="white"/>
<path d="M27.6963 165.147H20.6176C20.6176 161.254 23.803 158.068 27.6963 158.068L27.2244 159.602C26.7525 160.9 26.7525 162.434 27.2244 163.731L27.6963 165.147Z" fill="white"/>
<path d="M41.4414 158.068H34.3627V165.147H41.4414V158.068Z" fill="white"/>
<path d="M62.0591 165.147H54.9803V161.608C54.9803 159.602 56.5141 158.068 58.5197 158.068H62.0591V165.147Z" fill="white"/>
<path d="M68.9316 158.068H61.8528V165.147H68.9316V158.068Z" fill="white"/>
<path d="M75.8041 158.068H68.7254V165.147H75.8041V158.068Z" fill="white"/>
<path d="M136.123 158.54C134.825 159.012 133.292 159.012 131.994 158.54L130.578 158.068C130.578 161.962 133.764 165.147 137.657 165.147V158.068L136.123 158.54Z" fill="white"/>
<path d="M144.53 158.068H137.451V165.147H144.53V158.068Z" fill="white"/>
<path d="M151.402 158.068H144.323V165.147H151.402V158.068Z" fill="white"/>
<path d="M151.196 158.068V165.147L152.73 164.675C154.027 164.203 155.561 164.203 156.859 164.675L158.275 165.147C158.275 161.254 155.089 158.068 151.196 158.068Z" fill="white"/>
<path d="M172.02 165.147H164.941C164.941 161.254 168.126 158.068 172.02 158.068L171.548 159.602C171.076 160.9 171.076 162.434 171.548 163.731L172.02 165.147Z" fill="white"/>
<path d="M199.51 158.068H192.431V165.147H199.51V158.068Z" fill="white"/>
<path d="M211.721 158.54C210.423 159.012 208.89 159.012 207.592 158.54L206.176 158.068C206.176 161.962 209.362 165.147 213.255 165.147V158.068L211.721 158.54Z" fill="white"/>
<path d="M220.127 158.068H213.049V165.147H220.127V158.068Z" fill="white"/>
<path d="M227 165.147H219.921V158.068H223.461C225.466 158.068 227 159.602 227 161.608V165.147Z" fill="white"/>
<path d="M0 164.941L0.471914 166.475C0.943829 167.772 0.943829 169.306 0.471914 170.604L0 172.02C3.89329 172.02 7.07872 168.834 7.07872 164.941H0Z" fill="white"/>
<path d="M27.6963 172.02H24.157C22.1513 172.02 20.6176 170.486 20.6176 168.48V164.941H27.6963V172.02Z" fill="white"/>
<path d="M34.5689 164.941H27.4902V172.02H34.5689V164.941Z" fill="white"/>
<path d="M41.4414 164.941H34.3627V172.02H41.4414V164.941Z" fill="white"/>
<path d="M41.2352 164.941V172.02L42.769 171.548C44.0667 171.076 45.6004 171.076 46.8982 171.548L48.3139 172.02C48.3139 168.126 45.1285 164.941 41.2352 164.941Z" fill="white"/>
<path d="M62.0591 164.941H54.9803V172.02H62.0591V164.941Z" fill="white"/>
<path d="M68.7254 164.941L69.1973 166.475C69.6692 167.772 69.6692 169.306 69.1973 170.604L68.7254 172.02C72.6187 172.02 75.8041 168.834 75.8041 164.941H68.7254Z" fill="white"/>
<path d="M89.5492 172.02H82.4705C82.4705 168.126 85.6559 164.941 89.5492 164.941L89.0773 166.475C88.6053 167.772 88.6053 169.306 89.0773 170.604L89.5492 172.02Z" fill="white"/>
<path d="M110.167 172.02H103.088C103.088 168.126 106.274 164.941 110.167 164.941L109.695 166.475C109.223 167.772 109.223 169.306 109.695 170.604L110.167 172.02Z" fill="white"/>
<path d="M120.373 172.02C122.327 172.02 123.912 170.435 123.912 168.48C123.912 166.526 122.327 164.941 120.373 164.941C118.418 164.941 116.833 166.526 116.833 168.48C116.833 170.435 118.418 172.02 120.373 172.02Z" fill="white"/>
<path d="M144.323 164.941L144.795 166.475C145.267 167.772 145.267 169.306 144.795 170.604L144.323 172.02C148.217 172.02 151.402 168.834 151.402 164.941H144.323Z" fill="white"/>
<path d="M172.02 164.941H164.941V172.02H172.02V164.941Z" fill="white"/>
<path d="M178.892 164.941H171.813V172.02H178.892V164.941Z" fill="white"/>
<path d="M185.765 164.941H178.686V172.02H185.765V164.941Z" fill="white"/>
<path d="M192.637 164.941H185.559V172.02H192.637V164.941Z" fill="white"/>
<path d="M199.51 164.941H192.431V172.02H199.51V164.941Z" fill="white"/>
<path d="M220.127 164.941H213.049V172.02H220.127V164.941Z" fill="white"/>
<path d="M227 164.941H219.921V172.02H227V164.941Z" fill="white"/>
<path d="M62.0591 178.892H58.5197C56.5141 178.892 54.9803 177.358 54.9803 175.353V171.813H62.0591V178.892Z" fill="white"/>
<path d="M61.8528 171.813V178.892L63.3866 178.42C64.6843 177.948 66.2181 177.948 67.5158 178.42L68.9316 178.892C68.9316 174.999 65.7461 171.813 61.8528 171.813Z" fill="white"/>
<path d="M82.4705 171.813L82.9424 173.347C83.4143 174.645 83.4143 176.179 82.9424 177.476L82.4705 178.892C86.3638 178.892 89.5492 175.707 89.5492 171.813H82.4705Z" fill="white"/>
<path d="M103.088 171.813L103.56 173.347C104.032 174.645 104.032 176.179 103.56 177.476L103.088 178.892C106.981 178.892 110.167 175.707 110.167 171.813H103.088Z" fill="white"/>
<path d="M130.784 178.892H123.706C123.706 174.999 126.891 171.813 130.784 171.813L130.313 173.347C129.841 174.645 129.841 176.179 130.313 177.476L130.784 178.892Z" fill="white"/>
<path d="M172.02 171.813H164.941V178.892H172.02V171.813Z" fill="white"/>
<path d="M199.51 171.813H192.431V178.892H199.51V171.813Z" fill="white"/>
<path d="M206.382 178.892H199.304V171.813H202.843C204.849 171.813 206.382 173.347 206.382 175.353V178.892Z" fill="white"/>
<path d="M220.127 171.813H213.049V178.892H220.127V171.813Z" fill="white"/>
<path d="M223.461 178.892H219.921V171.813H227V175.353C227 177.358 225.466 178.892 223.461 178.892Z" fill="white"/>
<path d="M79.1373 185.765C81.0921 185.765 82.6767 184.18 82.6767 182.225C82.6767 180.271 81.0921 178.686 79.1373 178.686C77.1826 178.686 75.598 180.271 75.598 182.225C75.598 184.18 77.1826 185.765 79.1373 185.765Z" fill="white"/>
<path d="M96.4217 185.765H89.343V182.225C89.343 180.22 90.8767 178.686 92.8824 178.686H96.4217V185.765Z" fill="white"/>
<path d="M96.2156 178.686V185.765L97.7493 185.293C99.0471 184.821 100.581 184.821 101.879 185.293L103.294 185.765C103.294 181.871 100.109 178.686 96.2156 178.686Z" fill="white"/>
<path d="M123.706 178.686L124.178 180.22C124.65 181.518 124.65 183.051 124.178 184.349L123.706 185.765C127.599 185.765 130.784 182.579 130.784 178.686H123.706Z" fill="white"/>
<path d="M156.741 179.158C155.443 179.63 153.909 179.63 152.612 179.158L151.196 178.686C151.196 182.579 154.381 185.765 158.275 185.765V178.686L156.741 179.158Z" fill="white"/>
<path d="M165.147 178.686H158.068V185.765H165.147V178.686Z" fill="white"/>
<path d="M172.02 178.686H164.941V185.765H172.02V178.686Z" fill="white"/>
<path d="M182.225 185.765C184.18 185.765 185.765 184.18 185.765 182.225C185.765 180.271 184.18 178.686 182.225 178.686C180.271 178.686 178.686 180.271 178.686 182.225C178.686 184.18 180.271 185.765 182.225 185.765Z" fill="white"/>
<path d="M199.51 178.686H192.431V185.765H199.51V178.686Z" fill="white"/>
<path d="M206.382 178.686H199.304V185.765H206.382V178.686Z" fill="white"/>
<path d="M220.127 178.686H213.049V185.765H220.127V178.686Z" fill="white"/>
<path d="M68.9316 192.637H61.8528V189.098C61.8528 187.092 63.3866 185.559 65.3922 185.559H68.9316V192.637Z" fill="white"/>
<path d="M75.8041 192.637H68.7254V185.559H72.2648C74.2704 185.559 75.8041 187.092 75.8041 189.098V192.637Z" fill="white"/>
<path d="M96.4217 185.559H89.343V192.637H96.4217V185.559Z" fill="white"/>
<path d="M108.633 186.031C107.335 186.502 105.802 186.502 104.504 186.031L103.088 185.559C103.088 189.452 106.274 192.637 110.167 192.637V185.559L108.633 186.031Z" fill="white"/>
<path d="M109.961 185.559V192.637L111.494 192.165C112.792 191.693 114.326 191.693 115.624 192.165L117.039 192.637C117.039 188.744 113.854 185.559 109.961 185.559Z" fill="white"/>
<path d="M165.147 192.637H161.608C159.602 192.637 158.068 191.104 158.068 189.098V185.559H165.147V192.637Z" fill="white"/>
<path d="M172.02 185.559H164.941V192.637H172.02V185.559Z" fill="white"/>
<path d="M199.51 185.559H192.431V192.637H199.51V185.559Z" fill="white"/>
<path d="M206.382 185.559H199.304V192.637H206.382V185.559Z" fill="white"/>
<path d="M213.255 185.559H206.176V192.637H213.255V185.559Z" fill="white"/>
<path d="M220.127 185.559H213.049V192.637H220.127V185.559Z" fill="white"/>
<path d="M227 192.637H219.921V185.559H223.461C225.466 185.559 227 187.092 227 189.098V192.637Z" fill="white"/>
<path d="M62.0591 199.51H54.9803V195.971C54.9803 193.965 56.5141 192.431 58.5197 192.431H62.0591V199.51Z" fill="white"/>
<path d="M68.9316 192.431H61.8528V199.51H68.9316V192.431Z" fill="white"/>
<path d="M72.2648 199.51H68.7254V192.431H75.8041V195.971C75.8041 197.976 74.2704 199.51 72.2648 199.51Z" fill="white"/>
<path d="M89.5492 199.51H82.4705V195.971C82.4705 193.965 84.0042 192.431 86.0098 192.431H89.5492V199.51Z" fill="white"/>
<path d="M96.4217 192.431H89.343V199.51H96.4217V192.431Z" fill="white"/>
<path d="M96.2156 192.431V199.51L97.7493 199.038C99.0471 198.566 100.581 198.566 101.879 199.038L103.294 199.51C103.294 195.617 100.109 192.431 96.2156 192.431Z" fill="white"/>
<path d="M149.868 192.903C148.571 193.375 147.037 193.375 145.739 192.903L144.323 192.431C144.323 196.324 147.509 199.51 151.402 199.51V192.431L149.868 192.903Z" fill="white"/>
<path d="M151.196 192.431V199.51L152.73 199.038C154.027 198.566 155.561 198.566 156.859 199.038L158.275 199.51C158.275 195.617 155.089 192.431 151.196 192.431Z" fill="white"/>
<path d="M172.02 192.431H164.941V199.51H172.02V192.431Z" fill="white"/>
<path d="M178.892 192.431H171.813V199.51H178.892V192.431Z" fill="white"/>
<path d="M185.765 192.431H178.686V199.51H185.765V192.431Z" fill="white"/>
<path d="M192.637 192.431H185.559V199.51H192.637V192.431Z" fill="white"/>
<path d="M199.51 192.431H192.431V199.51H199.51V192.431Z" fill="white"/>
<path d="M206.382 192.431H199.304V199.51H206.382V192.431Z" fill="white"/>
<path d="M220.127 192.431H213.049V199.51H220.127V192.431Z" fill="white"/>
<path d="M223.461 199.51H219.921V192.431H227V195.971C227 197.976 225.466 199.51 223.461 199.51Z" fill="white"/>
<path d="M62.0591 199.304H54.9803V206.382H62.0591V199.304Z" fill="white"/>
<path d="M82.4705 199.304L82.9424 200.837C83.4143 202.135 83.4143 203.669 82.9424 204.967L82.4705 206.382C86.3638 206.382 89.5492 203.197 89.5492 199.304H82.4705Z" fill="white"/>
<path d="M108.633 199.776C107.335 200.248 105.802 200.248 104.504 199.776L103.088 199.304C103.088 203.197 106.274 206.382 110.167 206.382V199.304L108.633 199.776Z" fill="white"/>
<path d="M117.039 199.304H109.961V206.382H117.039V199.304Z" fill="white"/>
<path d="M123.912 206.382H116.833V199.304H120.373C122.378 199.304 123.912 200.837 123.912 202.843V206.382Z" fill="white"/>
<path d="M137.657 206.382H130.578C130.578 202.489 133.764 199.304 137.657 199.304L137.185 200.837C136.713 202.135 136.713 203.669 137.185 204.967L137.657 206.382Z" fill="white"/>
<path d="M163.613 199.776C162.316 200.248 160.782 200.248 159.484 199.776L158.068 199.304C158.068 203.197 161.254 206.382 165.147 206.382V199.304L163.613 199.776Z" fill="white"/>
<path d="M172.02 199.304H164.941V206.382H172.02V199.304Z" fill="white"/>
<path d="M178.892 199.304H171.813V206.382H178.892V199.304Z" fill="white"/>
<path d="M199.51 206.382H195.971C193.965 206.382 192.431 204.849 192.431 202.843V199.304H199.51V206.382Z" fill="white"/>
<path d="M202.843 206.382H199.304V199.304H206.382V202.843C206.382 204.849 204.849 206.382 202.843 206.382Z" fill="white"/>
<path d="M213.049 199.304L213.521 200.837C213.993 202.135 213.993 203.669 213.521 204.967L213.049 206.382C216.942 206.382 220.127 203.197 220.127 199.304H213.049Z" fill="white"/>
<path d="M62.0591 213.255H58.5197C56.5141 213.255 54.9803 211.721 54.9803 209.716V206.176H62.0591V213.255Z" fill="white"/>
<path d="M61.8528 206.176V213.255L63.3866 212.783C64.6843 212.311 66.2181 212.311 67.5158 212.783L68.9316 213.255C68.9316 209.362 65.7461 206.176 61.8528 206.176Z" fill="white"/>
<path d="M103.294 213.255H96.2156C96.2156 209.362 99.401 206.176 103.294 206.176L102.822 207.71C102.35 209.008 102.35 210.541 102.822 211.839L103.294 213.255Z" fill="white"/>
<path d="M117.039 206.176H109.961V213.255H117.039V206.176Z" fill="white"/>
<path d="M120.373 213.255H116.833V206.176H123.912V209.716C123.912 211.721 122.378 213.255 120.373 213.255Z" fill="white"/>
<path d="M137.657 206.176H130.578V213.255H137.657V206.176Z" fill="white"/>
<path d="M144.53 206.176H137.451V213.255H144.53V206.176Z" fill="white"/>
<path d="M151.402 206.176H144.323V213.255H151.402V206.176Z" fill="white"/>
<path d="M151.196 206.176V213.255L152.73 212.783C154.027 212.311 155.561 212.311 156.859 212.783L158.275 213.255C158.275 209.362 155.089 206.176 151.196 206.176Z" fill="white"/>
<path d="M172.02 213.255H168.48C166.475 213.255 164.941 211.721 164.941 209.716V206.176H172.02V213.255Z" fill="white"/>
<path d="M178.892 206.176H171.813V213.255H178.892V206.176Z" fill="white"/>
<path d="M185.765 213.255H178.686V206.176H182.225C184.231 206.176 185.765 207.71 185.765 209.716V213.255Z" fill="white"/>
<path d="M79.1373 220.128C81.0921 220.128 82.6767 218.543 82.6767 216.588C82.6767 214.633 81.0921 213.049 79.1373 213.049C77.1826 213.049 75.598 214.633 75.598 216.588C75.598 218.543 77.1826 220.128 79.1373 220.128Z" fill="white"/>
<path d="M94.888 213.521C93.5902 213.993 92.0565 213.993 90.7588 213.521L89.343 213.049C89.343 216.942 92.5284 220.128 96.4217 220.128V213.049L94.888 213.521Z" fill="white"/>
<path d="M99.7549 220.128H96.2156V213.049H103.294V216.588C103.294 218.594 101.761 220.128 99.7549 220.128Z" fill="white"/>
<path d="M109.961 213.049L110.433 214.583C110.904 215.88 110.904 217.414 110.433 218.712L109.961 220.128C113.854 220.128 117.039 216.942 117.039 213.049H109.961Z" fill="white"/>
<path d="M137.657 213.049H130.578V220.128H137.657V213.049Z" fill="white"/>
<path d="M151.402 213.049H144.323V220.128H151.402V213.049Z" fill="white"/>
<path d="M178.892 213.049H171.813V220.128H178.892V213.049Z" fill="white"/>
<path d="M185.765 213.049H178.686V220.128H185.765V213.049Z" fill="white"/>
<path d="M185.559 213.049V220.128L187.092 219.656C188.39 219.184 189.924 219.184 191.222 219.656L192.637 220.128C192.637 216.234 189.452 213.049 185.559 213.049Z" fill="white"/>
<path d="M202.843 220.128C204.798 220.128 206.382 218.543 206.382 216.588C206.382 214.633 204.798 213.049 202.843 213.049C200.888 213.049 199.304 214.633 199.304 216.588C199.304 218.543 200.888 220.128 202.843 220.128Z" fill="white"/>
<path d="M72.2648 227C74.2195 227 75.8041 225.415 75.8041 223.461C75.8041 221.506 74.2195 219.921 72.2648 219.921C70.31 219.921 68.7254 221.506 68.7254 223.461C68.7254 225.415 70.31 227 72.2648 227Z" fill="white"/>
<path d="M86.0098 227C87.9646 227 89.5492 225.415 89.5492 223.461C89.5492 221.506 87.9646 219.921 86.0098 219.921C84.0551 219.921 82.4705 221.506 82.4705 223.461C82.4705 225.415 84.0551 227 86.0098 227Z" fill="white"/>
<path d="M122.378 220.393C121.08 220.865 119.547 220.865 118.249 220.393L116.833 219.921C116.833 223.815 120.019 227 123.912 227V219.921L122.378 220.393Z" fill="white"/>
<path d="M130.784 219.921H123.706V227H130.784V219.921Z" fill="white"/>
<path d="M137.657 219.921H130.578V227H137.657V219.921Z" fill="white"/>
<path d="M144.53 219.921H137.451V227H144.53V219.921Z" fill="white"/>
<path d="M147.863 227H144.323V219.921H151.402V223.461C151.402 225.466 149.868 227 147.863 227Z" fill="white"/>
<path d="M163.613 220.393C162.316 220.865 160.782 220.865 159.484 220.393L158.068 219.921C158.068 223.815 161.254 227 165.147 227V219.921L163.613 220.393Z" fill="white"/>
<path d="M172.02 219.921H164.941V227H172.02V219.921Z" fill="white"/>
<path d="M178.892 219.921H171.813V227H178.892V219.921Z" fill="white"/>
<path d="M182.225 227H178.686V219.921H185.765V223.461C185.765 225.466 184.231 227 182.225 227Z" fill="white"/>
<path d="M211.721 220.393C210.423 220.865 208.89 220.865 207.592 220.393L206.176 219.921C206.176 223.815 209.362 227 213.255 227V219.921L211.721 220.393Z" fill="white"/>
<path d="M213.049 219.921V227L214.582 226.528C215.88 226.056 217.414 226.056 218.712 226.528L220.127 227C220.127 223.107 216.942 219.921 213.049 219.921Z" fill="white"/>
<path d="M0 0V32.9882C0 41.2352 6.87254 48.1078 15.1196 48.1078H48.1078V15.1196C48.1078 6.87254 41.2352 0 32.9882 0H0ZM41.2352 41.2352H16.4941C11.3397 41.2352 6.87254 36.7681 6.87254 31.6137V6.87254H31.6137C36.7681 6.87254 41.2352 11.3397 41.2352 16.4941V41.2352Z" fill="white"/>
<path d="M226.794 0L193.806 0C185.559 0 178.686 6.87254 178.686 15.1196V48.1078H211.674C219.921 48.1078 226.794 41.2352 226.794 32.9882V0ZM185.559 41.2352V16.4941C185.559 11.3397 190.026 6.87254 195.18 6.87254L219.921 6.87254V31.6137C219.921 36.7681 215.454 41.2352 210.3 41.2352H185.559Z" fill="white"/>
<path d="M0 226.794H32.9882C41.2352 226.794 48.1078 219.921 48.1078 211.674V178.686H15.1196C6.87254 178.686 0 185.559 0 193.806L0 226.794ZM41.2352 185.559V210.3C41.2352 215.454 36.7681 219.921 31.6137 219.921H6.87254L6.87254 195.18C6.87254 190.026 11.3397 185.559 16.4941 185.559H41.2352Z" fill="white"/>
<path d="M28.521 34.3627H19.5867C16.4941 34.3627 13.7451 31.6137 13.7451 28.5211V13.7451H28.521C31.6137 13.7451 34.3627 16.4941 34.3627 19.5868V28.5211C34.3627 31.6137 31.6137 34.3627 28.521 34.3627Z" fill="white"/>
<path d="M192.431 28.5211V19.5868C192.431 16.4941 195.18 13.7451 198.273 13.7451L213.049 13.7451V28.5211C213.049 31.6137 210.3 34.3627 207.207 34.3627H198.273C195.18 34.3627 192.431 31.6137 192.431 28.5211Z" fill="white"/>
<path d="M34.3626 198.273V207.207C34.3626 210.3 31.6136 213.049 28.521 213.049H13.745L13.745 198.273C13.745 195.18 16.494 192.431 19.5867 192.431H28.521C31.6136 192.431 34.3626 195.18 34.3626 198.273Z" fill="white"/>
</mask>
<g mask="url(#mask0_552_3079)">
<path d="M240.539 -13.7451H-13.7451V240.539H240.539V-13.7451Z" fill="white" fill-opacity="0.7"/>
</g>
</svg>
