<svg width="36" height="36" viewBox="0 0 36 36" fill="none" xmlns="http://www.w3.org/2000/svg">
<rect x="0.5" y="0.5" width="35" height="35" rx="7.5" stroke="#FEFEFE" stroke-opacity="0.6"/>
<g clip-path="url(#clip0_189_1281)">
<path fill-rule="evenodd" clip-rule="evenodd" d="M5.10883 5.10883C3 7.21766 3 10.6118 3 17.4V18.6C3 25.3883 3 28.7823 5.10883 30.8912C7.21766 33 10.6118 33 17.4 33H18.6C25.3883 33 28.7823 33 30.8912 30.8912C33 28.7823 33 25.3883 33 18.6V17.4C33 10.6118 33 7.21766 30.8912 5.10883C28.7823 3 25.3883 3 18.6 3H17.4C10.6118 3 7.21766 3 5.10883 5.10883ZM8.06257 12.1251C8.22507 19.9251 12.1251 24.6126 18.9626 24.6126H19.3501V20.1501C21.8626 20.4001 23.7625 22.2376 24.525 24.6126H28.0751C27.1001 21.0626 24.5374 19.1001 22.9374 18.3501C24.5374 17.4251 26.7874 15.1751 27.3249 12.1251H24.0999C23.3999 14.6001 21.3251 16.8501 19.3501 17.0626V12.1251H16.125V20.7751C14.125 20.2751 11.6001 17.8501 11.4876 12.1251H8.06257Z" fill="white" fill-opacity="0.6"/>
</g>
<defs>
<clipPath id="clip0_189_1281">
<rect width="30" height="30" fill="white" transform="translate(3 3)"/>
</clipPath>
</defs>
</svg>
